<svg xmlns="http://www.w3.org/2000/svg" viewBox="0 0 698 746">
  <path d="M 150 56 L 149 167 L 95 221 L 93 225 L 93 301 L 95 304 L 135 324 L 278 325 L 278 361 L 280 364 L 280 426 L 282 430 L 312 463 L 312 645 L 309 649 L 308 657 L 311 665 L 317 670 L 330 670 L 335 667 L 339 659 L 339 652 L 335 644 L 335 463 L 360 436 L 367 426 L 367 365 L 369 362 L 369 326 L 371 324 L 513 324 L 553 304 L 554 224 L 498 167 L 498 56 Z" fill="black" stroke="black" stroke-width="1" stroke-linejoin="round" stroke-linecap="round"/>
</svg>